# xmcd
#
# Track frame offsets:
#	150
#	13935
#	33133
#
# Disc length: 782 seconds
#
# Revision: 5
# Processed by: cddbd v1.5.2PL0 Copyright (c) Steve Scherf et al.
# Submitted via: EZCDAudioConverter 7.1.0.1
#
DISCID=19030c03
DTITLE=张震岳 - 再见
DYEAR=2002
DGENRE=
TTITLE0=张震岳 - 再见
TTITLE1=張震嶽 - 山地小情歌
TTITLE2=張震嶽 - 山上的女孩
EXTD=
EXTT0=
EXTT1=
EXTT2=
PLAYORDER=
